<svg xmlns="http://www.w3.org/2000/svg" viewBox="0 0 64 64">
  <rect width="64" height="64" rx="16" fill="#dbe8f6"/>
  <path d="M9 44c8-13 12-22 20-22 7 0 10 8 15 8 4 0 6-4 11-10 2 10 1 18-3 24H9z" fill="#fffdf9"/>
  <path d="M10 44h44c-4 7-11 11-21 11-10 0-18-4-23-11z" fill="#5b7a6b"/>
  <path d="M16 38c6 4 12 5 18 3s10-7 15-14" fill="none" stroke="#c2624f" stroke-width="4" stroke-linecap="round" stroke-dasharray="2 7"/>
  <circle cx="16" cy="38" r="5" fill="#c2624f"/>
  <circle cx="49" cy="27" r="5" fill="#a8866a"/>
  <path d="M20 18h24" stroke="#5b7a6b" stroke-width="5" stroke-linecap="round"/>
  <path d="M26 13h12" stroke="#5b7a6b" stroke-width="4" stroke-linecap="round"/>
  <path d="M24 24h16" stroke="#5b7a6b" stroke-width="5" stroke-linecap="round"/>
</svg>
